<?xml version="1.0" encoding="UTF-8" standalone="no"?>
<!-- Uploaded to: SVG Repo, www.svgrepo.com, Transformed by: SVG Repo Mixer Tools -->

<svg
   width="800px"
   height="800px"
   viewBox="0 0 48 48"
   id="Layer_2"
   data-name="Layer 2"
   fill="#000000"
   version="1.1"
   sodipodi:docname="AceDungeonGenerator.svg"
   inkscape:version="1.3.2 (091e20e, 2023-11-25, custom)"
   xmlns:inkscape="http://www.inkscape.org/namespaces/inkscape"
   xmlns:sodipodi="http://sodipodi.sourceforge.net/DTD/sodipodi-0.dtd"
   xmlns="http://www.w3.org/2000/svg"
   xmlns:svg="http://www.w3.org/2000/svg">
  <defs
     id="defs2" />
  <sodipodi:namedview
     id="namedview1"
     pagecolor="#ffffff"
     bordercolor="#000000"
     borderopacity="0.25"
     inkscape:showpageshadow="2"
     inkscape:pageopacity="0.0"
     inkscape:pagecheckerboard="0"
     inkscape:deskcolor="#d1d1d1"
     inkscape:zoom="1.01625"
     inkscape:cx="400.492"
     inkscape:cy="338.00738"
     inkscape:window-width="1920"
     inkscape:window-height="1009"
     inkscape:window-x="3832"
     inkscape:window-y="-8"
     inkscape:window-maximized="1"
     inkscape:current-layer="Layer_2" />
  <g
     id="SVGRepo_bgCarrier"
     stroke-width="0"
     style="display:none" />
  <g
     id="SVGRepo_tracerCarrier"
     stroke-linecap="round"
     stroke-linejoin="round"
     style="display:none" />
  <g
     id="SVGRepo_iconCarrier">
    <defs
       id="defs1">
      <style
         id="style1">.cls-1{fill:none;stroke:#000000;stroke-linecap:round;stroke-linejoin:round;}</style>
    </defs>
    <path
       class="cls-1"
       d="M41,5H7A2,2,0,0,0,5,7V41a2,2,0,0,0,2,2H41a2,2,0,0,0,2-2V7A2,2,0,0,0,41,5ZM39,22H31.08V16.92H26V9H39ZM27.08,20.92v6.16H20.92V20.92ZM22,9v7.92H16.92V22H9V9ZM37.12,39H9V26h7.92v5.08H31.08V26H39V37.12A1.88,1.88,0,0,1,37.12,39Z"
       id="path1"
       style="fill:#fc7f7f;fill-opacity:1;stroke:#fc7f7f;stroke-opacity:1" />
  </g>
</svg>
