<?xml version="1.0" encoding="UTF-8" standalone="no"?>
<svg
   version="1.1"
   x="0px"
   y="0px"
   viewBox="0 0 82.199997 82.199997"
   xml:space="preserve"
   id="svg2"
   sodipodi:docname="AceBoardGenerator.svg"
   width="82.199997"
   height="82.199997"
   inkscape:version="1.3.2 (091e20e, 2023-11-25, custom)"
   xmlns:inkscape="http://www.inkscape.org/namespaces/inkscape"
   xmlns:sodipodi="http://sodipodi.sourceforge.net/DTD/sodipodi-0.dtd"
   xmlns="http://www.w3.org/2000/svg"
   xmlns:svg="http://www.w3.org/2000/svg"><defs
     id="defs2" /><sodipodi:namedview
     id="namedview2"
     pagecolor="#ffffff"
     bordercolor="#000000"
     borderopacity="0.25"
     inkscape:showpageshadow="2"
     inkscape:pageopacity="0.0"
     inkscape:pagecheckerboard="0"
     inkscape:deskcolor="#d1d1d1"
     inkscape:zoom="6.504"
     inkscape:cx="40.974785"
     inkscape:cy="41.282288"
     inkscape:window-width="1920"
     inkscape:window-height="1009"
     inkscape:window-x="3832"
     inkscape:window-y="-8"
     inkscape:window-maximized="1"
     inkscape:current-layer="svg2" /><path
     d="m 80.1,1.1 h -78 c -0.552734,0 -1,0.447266 -1,1 v 78 c 0,0.552734 0.447266,1 1,1 h 78 c 0.552734,0 1,-0.447266 1,-1 v -78 c 0,-0.552734 -0.447266,-1 -1,-1 z m -38,60.360352 H 59.460352 V 79.1 H 42.1 Z M 40.1,79.1 H 22.739648 V 61.460352 H 40.1 Z M 22.739648,59.460352 V 22.739648 h 36.720704 v 36.720704 z m -2,-19.360352 H 3.1 V 22.739648 H 20.739648 Z M 3.1,42.1 H 20.739648 V 59.460352 H 3.1 Z m 37,-21.360352 H 22.739648 V 3.1 H 40.1 Z M 42.1,3.1 H 59.460352 V 20.739648 H 42.1 Z m 37,37 H 61.460352 V 22.739648 H 79.1 Z m -17.639648,2 H 79.1 V 59.460352 H 61.460352 Z M 79.1,20.739648 H 61.460352 V 3.1 H 79.1 Z M 20.739648,3.1 V 20.739648 H 3.1 V 3.1 Z M 3.1,61.460352 H 20.739648 V 79.1 H 3.1 Z M 61.460352,79.1 V 61.460352 H 79.1 V 79.1 Z"
     id="path1"
     inkscape:label="Board"
     style="fill:#fc7f7f;fill-opacity:1;stroke:#fc7f7f;stroke-width:2.2;stroke-dasharray:none;stroke-opacity:1" /><path
     fill="#040606"
     d="m 48.739115,38.635582 c -4.252553,-4.108 -7.048107,-8.403218 -7.6467,-9.636701 -0.596681,1.233483 -3.392236,5.528701 -7.64479,9.636701 -2.834398,2.988504 -3.171266,6.909922 -0.632979,9.335494 2.422389,2.391187 5.33193,0.711306 7.011811,-0.597318 -0.03885,0.859681 -0.336868,3.399241 -2.686662,5.827361 h 7.981657 c -2.388001,-2.42812 -2.684115,-5.006525 -2.684115,-5.827361 1.641673,1.308624 4.548667,2.988505 7.011811,0.597318 2.461234,-2.425572 2.126277,-6.385834 -0.710033,-9.335494"
     fill-opacity="1"
     fill-rule="nonzero"
     id="path1-6"
     style="fill:#fc7f7f;fill-opacity:1;stroke:#fc7f7f;stroke-width:0.563;stroke-dasharray:none;stroke-opacity:1"
     inkscape:label="Spade" /></svg>
