<?xml version="1.0" encoding="UTF-8" standalone="no"?>
<!-- Uploaded to: SVG Repo, www.svgrepo.com, Transformed by: SVG Repo Mixer Tools -->

<svg
   width="800px"
   height="800px"
   viewBox="0 0 48 48"
   id="Layer_2"
   data-name="Layer 2"
   fill="#000000"
   version="1.1"
   sodipodi:docname="AceDungeonGenerator.svg"
   inkscape:version="1.2.1 (9c6d41e410, 2022-07-14)"
   xml:space="preserve"
   xmlns:inkscape="http://www.inkscape.org/namespaces/inkscape"
   xmlns:sodipodi="http://sodipodi.sourceforge.net/DTD/sodipodi-0.dtd"
   xmlns="http://www.w3.org/2000/svg"
   xmlns:svg="http://www.w3.org/2000/svg"><defs
     id="defs2" /><sodipodi:namedview
     id="namedview1"
     pagecolor="#ffffff"
     bordercolor="#000000"
     borderopacity="0.25"
     inkscape:showpageshadow="2"
     inkscape:pageopacity="0.0"
     inkscape:pagecheckerboard="0"
     inkscape:deskcolor="#d1d1d1"
     inkscape:zoom="0.35929863"
     inkscape:cx="-76.538003"
     inkscape:cy="414.69682"
     inkscape:window-width="1440"
     inkscape:window-height="731"
     inkscape:window-x="4831"
     inkscape:window-y="4"
     inkscape:window-maximized="1"
     inkscape:current-layer="Layer_2"
     showgrid="false" /><g
     id="SVGRepo_bgCarrier"
     stroke-width="0"
     style="display:none" /><g
     id="SVGRepo_tracerCarrier"
     stroke-linecap="round"
     stroke-linejoin="round"
     style="display:none" /><g
     id="SVGRepo_iconCarrier"
     style="display:inline"><defs
       id="defs1"><style
         id="style1">.cls-1{fill:none;stroke:#000000;stroke-linecap:round;stroke-linejoin:round;}</style></defs><path
       id="path1"
       style="fill:#fc7f7f;fill-opacity:1;stroke:#fc7f7f;stroke-opacity:1"
       class="cls-1"
       d="M 6.9999609 5.0000391 A 2 2 0 0 0 5.0000391 6.9999609 L 5.0000391 41.000039 A 2 2 0 0 0 6.9999609 42.999961 L 41.000039 42.999961 A 2 2 0 0 0 42.999961 41.000039 L 42.999961 6.9999609 A 2 2 0 0 0 41.000039 5.0000391 L 6.9999609 5.0000391 z M 9 9 L 21.999961 9 L 21.999961 16.92 L 16.92 16.92 L 16.92 21.999961 L 9 21.999961 L 9 9 z M 26.000039 9 L 39 9 L 39 21.999961 L 31.08 21.999961 L 31.08 16.92 L 26.000039 16.92 L 26.000039 9 z M 23.995781 17.274961 C 24.244919 17.788348 25.17896 19.256285 26.625 20.919961 L 27.080039 20.919961 L 27.080039 21.430195 C 27.442322 21.827038 27.831096 22.230256 28.245352 22.63043 C 29.821579 24.26965 30.007709 26.470469 28.639922 27.818437 C 27.271073 29.147297 25.655533 28.213807 24.743203 27.486562 C 24.743203 27.942728 24.907793 29.375654 26.234883 30.725039 L 21.799219 30.725039 C 23.105075 29.375654 23.270734 27.964314 23.292305 27.486562 C 22.358741 28.213807 20.741786 29.147297 19.395586 27.818437 C 17.984979 26.470469 18.172215 24.291238 19.747383 22.63043 C 20.164448 22.227542 20.555597 21.821554 20.919961 21.422109 L 20.919961 20.919961 L 21.367617 20.919961 C 22.813606 19.256285 23.747436 17.788348 23.995781 17.274961 z M 9 26.000039 L 16.92 26.000039 L 16.92 31.08 L 31.08 31.08 L 31.08 26.000039 L 39 26.000039 L 39 37.119961 A 1.88 1.88 0 0 1 37.119961 39 L 9 39 L 9 26.000039 z " /></g><g
     inkscape:groupmode="layer"
     id="layer1"
     inkscape:label="Spade"
     style="display:inline"
     transform="matrix(1.1124821,0,0,1.1124821,-2.5982527,-2.8530487)" /></svg>
