<?xml version="1.0" encoding="UTF-8" standalone="no"?>
<!-- Uploaded to: SVG Repo, www.svgrepo.com, Transformed by: SVG Repo Mixer Tools -->

<svg
   fill="#fc7f7f"
   width="800px"
   height="800px"
   viewBox="0 0 512 512"
   version="1.1"
   id="svg857"
   sodipodi:docname="AceRoomGenerator.svg"
   xml:space="preserve"
   inkscape:version="1.2.1 (9c6d41e410, 2022-07-14)"
   xmlns:inkscape="http://www.inkscape.org/namespaces/inkscape"
   xmlns:sodipodi="http://sodipodi.sourceforge.net/DTD/sodipodi-0.dtd"
   xmlns="http://www.w3.org/2000/svg"
   xmlns:svg="http://www.w3.org/2000/svg"><defs
     id="defs861" /><sodipodi:namedview
     id="namedview859"
     pagecolor="#ffffff"
     bordercolor="#000000"
     borderopacity="0.25"
     inkscape:showpageshadow="2"
     inkscape:pageopacity="0.0"
     inkscape:pagecheckerboard="0"
     inkscape:deskcolor="#d1d1d1"
     showgrid="false"
     inkscape:zoom="0.295"
     inkscape:cx="181.35593"
     inkscape:cy="400"
     inkscape:window-width="1440"
     inkscape:window-height="731"
     inkscape:window-x="4831"
     inkscape:window-y="4"
     inkscape:window-maximized="1"
     inkscape:current-layer="svg857" /><g
     id="SVGRepo_bgCarrier"
     stroke-width="0" /><g
     id="SVGRepo_tracerCarrier"
     stroke-linecap="round"
     stroke-linejoin="round" /><g
     id="SVGRepo_iconCarrier"><path
       id="path854"
       d="M 256 0 C 234.23002 0 213.13998 2.8200052 192.97 8 C 183.80001 10.349998 179.06 20.600009 182.58 29.39 L 220.05 133.42 A 16.003 16.003 0 0 0 235.1 144 L 276.9 144 C 283.64999 144 289.67 139.76999 291.95 133.42 L 329.42 29.39 C 332.94 20.600009 328.19999 10.359998 319.03 8 C 298.86002 2.8200052 277.76998 0 256 0 z M 254.635 14.79625 C 257.17538 20.031049 269.03999 38.25971 287.0875 55.69375 C 299.12458 68.211889 300.54655 85.018562 290.10125 95.3125 C 279.64787 105.46051 267.31086 98.331199 260.34375 92.7775 C 260.34375 96.261057 261.60051 107.204 271.735 117.50875 L 237.86125 117.50875 C 247.83359 107.204 249.09765 96.425906 249.2625 92.7775 C 242.13321 98.331199 229.78542 105.46051 219.505 95.3125 C 208.73269 85.018562 210.16227 68.376743 222.19125 55.69375 C 240.23876 38.25971 252.10273 20.031049 254.635 14.79625 z M 137.07375 31.3025 C 134.85906 31.432656 132.6425 32.050001 130.57 33.22 A 257.308 257.308 0 0 0 58.96 93.11 C 52.900006 100.42999 55.110008 111.59001 63.18 116.63 L 146.11 168.46 C 152.61999 172.53 160.77001 171.07999 166.22 165.67 C 171.39999 160.52001 177.01001 155.82 183.01 151.62 C 189.28999 147.21 192.16 139.44999 189.31 132.33 L 152.99 41.53 C 150.3425 34.907507 143.71781 30.912032 137.07375 31.3025 z M 374.92125 31.3025 C 368.28094 30.912032 361.655 34.907507 359 41.53 L 322.68 132.33 C 319.83 139.44999 322.70001 147.21 328.98 151.61 C 334.97999 155.81 340.59001 160.51001 345.77 165.66 C 351.20999 171.06999 359.37001 172.52 365.88 168.45 L 448.81 116.62 C 456.87999 111.59001 459.09999 100.42999 453.03 93.11 A 257.308 257.308 0 0 0 381.42 33.22 C 379.35 32.050001 377.13469 31.432656 374.92125 31.3025 z M 36.17 141.1225 C 30.652818 141.48949 25.452498 144.62251 22.99 150.01 A 254.19 254.19 0 0 0 0.54 239.28 C -0.04999941 248.36999 7.5900091 256 16.69 256 L 113.82 256 C 121.77999 256 127.9 249.74999 128.83 241.84 C 129.92 232.51001 132.07 223.50999 135.07 214.9 C 137.63 207.56001 135.31999 199.44 128.73 195.32 L 45.92 143.56 C 42.905003 141.6775 39.480309 140.9023 36.17 141.1225 z M 475.83 141.1225 C 472.51969 140.9023 469.095 141.6775 466.08 143.56 L 383.27 195.32 C 376.68001 199.44 374.37 207.56001 376.93 214.9 C 379.94 223.50999 382.08 232.52001 383.17 241.84 C 384.1 249.74999 390.22001 256 398.18 256 L 495.31 256 C 504.40999 256 512.05 248.36999 511.46 239.28 A 254.135 254.135 0 0 0 489.01 150.01 C 486.5475 144.62251 481.34718 141.48949 475.83 141.1225 z M 256 176 C 250.52001 176 245.22999 176.73 240 177.62 L 240 472 C 240 476.42 243.58 480 248 480 L 264 480 C 268.42 480 272 476.42 272 472 L 272 177.62 C 266.77001 176.73 261.47999 176 256 176 z M 208 189.36 C 195.22001 196.80999 184.15999 206.83001 176 219.13 L 176 472 C 176 476.42 179.58 480 184 480 L 200 480 C 204.42 480 208 476.42 208 472 L 208 189.36 z M 304 189.36 L 304 472 C 304 476.42 307.58 480 312 480 L 328 480 C 332.42 480 336 476.42 336 472 L 336 219.13 C 327.84001 206.83001 316.77999 196.80999 304 189.36 z M 16 288 C 7.1600088 288 0 295.16001 0 304 L 0 368 C 0 376.83999 7.1600088 384 16 384 L 112 384 C 120.83999 384 128 376.83999 128 368 L 128 304 C 128 295.16001 120.83999 288 112 288 L 16 288 z M 400 288 C 391.16001 288 384 295.16001 384 304 L 384 368 C 384 376.83999 391.16001 384 400 384 L 496 384 C 504.83999 384 512 376.83999 512 368 L 512 304 C 512 295.16001 504.83999 288 496 288 L 400 288 z M 16 416 C 7.1600088 416 0 423.16001 0 432 L 0 496 C 0 504.83999 7.1600088 512 16 512 L 112 512 C 120.83999 512 128 504.83999 128 496 L 128 432 C 128 423.16001 120.83999 416 112 416 L 16 416 z M 400 416 C 391.16001 416 384 423.16001 384 432 L 384 496 C 384 504.83999 391.16001 512 400 512 L 496 512 C 504.83999 512 512 504.83999 512 496 L 512 432 C 512 423.16001 504.83999 416 496 416 L 400 416 z " /></g><g
     inkscape:groupmode="layer"
     id="layer2"
     inkscape:label="Spade" /></svg>
